<svg class="svg-icon" style="width: 1em;height: 1em;vertical-align: middle;fill: currentColor;overflow: hidden;" viewBox="0 0 1024 1024" version="1.1" xmlns="http://www.w3.org/2000/svg"><path d="M512 874.666667c200.298667 0 362.666667-162.368 362.666667-362.666667S712.298667 149.333333 512 149.333333 149.333333 311.701333 149.333333 512s162.368 362.666667 362.666667 362.666667z m448-362.666667c0 247.424-200.576 448-448 448S64 759.424 64 512 264.576 64 512 64s448 200.576 448 448z" fill="#0A0A0A" /><path d="M652.501333 712.832l-341.333333-341.333333 60.330667-60.330667 341.333333 341.333333-60.330667 60.330667z" fill="#0A0A0A" /><path d="M712.832 371.498667l-341.333333 341.333333-60.330667-60.330667 341.333333-341.333333 60.330667 60.330667z" fill="#0A0A0A" /></svg>